<svg xmlns="http://www.w3.org/2000/svg" version="1.1" xmlns:xlink="http://www.w3.org/1999/xlink" xmlns:svgjs="http://svgjs.dev/svgjs" width="2000" height="1500" viewBox="0 0 2000 1500"><rect width="2000" height="1500" fill="#ffffff"></rect><g transform="matrix(0.75,0,0,0.75,249.090909090909,282.7536437246963)"><svg viewBox="0 0 396 247" data-background-color="#ffffff" preserveAspectRatio="xMidYMid meet" height="1247" width="2000" xmlns="http://www.w3.org/2000/svg" xmlns:xlink="http://www.w3.org/1999/xlink"><g id="tight-bounds" transform="matrix(1,0,0,1,0.2400000000000091,-0.09999999999999432)"><svg viewBox="0 0 395.52 247.2" height="247.2" width="395.52"><g><svg></svg></g><g><svg viewBox="0 0 395.52 247.2" height="247.2" width="395.52"><g transform="matrix(1,0,0,1,92.59264885656509,47.215199999999996)"><svg viewBox="0 0 210.3347022868698 152.7696" height="152.7696" width="210.3347022868698"><g><svg viewBox="0 0 244.43135999999998 177.53457079910044" height="152.7696" width="210.3347022868698"><g><svg viewBox="0 0 244.43135999999998 177.53457079910044" height="177.53457079910044" width="244.43135999999998"><g><svg viewBox="0 0 244.43135999999998 177.53457079910044" height="177.53457079910044" width="244.43135999999998"><g><svg viewBox="0 0 244.43135999999998 151.825483872" height="151.825483872" width="244.43135999999998"><g transform="matrix(1,0,0,1,88.05682400228132,40.12713220172666)"><svg viewBox="0 0 68.31771199543735 71.57121946854669" height="71.57121946854669" width="68.31771199543735"><g><svg xmlns="http://www.w3.org/2000/svg" xmlns:xlink="http://www.w3.org/1999/xlink" version="1.1" x="0" y="0" viewBox="1.0909994107810177 0 45.81800058921898 48" enable-background="new 0 0 48 48" xml:space="preserve" height="71.57121946854669" width="68.31771199543735" class="icon-ef-0" data-fill-palette-color="accent" id="ef-0"><g fill="#d90000" data-fill-palette-color="accent"><path d="M22.085 8.311c-0.255-0.119-0.554-0.119-0.809 0.003-0.255 0.122-0.443 0.353-0.51 0.627C16.864 24.816 8.108 32.086 8.021 32.158c-0.103 0.083-0.182 0.184-0.24 0.294h34.773C40.398 17.089 22.836 8.665 22.085 8.311z" fill="#d90000" data-fill-palette-color="accent"></path><path d="M44.075 34.633h-1.521H7.781 3.925c-1.563 0-2.834 1.271-2.834 2.834v7.699C1.09 46.729 2.362 48 3.925 48h40.15c1.563 0 2.834-1.271 2.834-2.834v-7.699C46.909 35.904 45.639 34.633 44.075 34.633z" fill="#d90000" data-fill-palette-color="accent"></path><path d="M20.994 0c-2.688 0-4.876 2.267-4.876 5.053 0 2.789 2.188 5.058 4.876 5.058 2.683 0 4.865-2.269 4.865-5.058C25.859 2.267 23.677 0 20.994 0z" fill="#d90000" data-fill-palette-color="accent"></path></g></svg></g></svg></g><path d="M54.122 58.614V58.614C51.851 57.843 50.299 56.623 49.465 54.956 48.636 53.297 48.587 51.37 49.318 49.177V49.177L49.761 47.848 51.562 48.448 51.037 50.022C50.534 51.531 50.647 52.857 51.376 54.001 52.105 55.144 53.25 55.994 54.81 56.549V56.549C56.386 57.04 57.811 57.047 59.087 56.572 60.356 56.094 61.243 55.101 61.746 53.593V53.593L62.27 52.019 64.071 52.619 63.628 53.948C62.896 56.141 61.701 57.653 60.042 58.482 58.374 59.316 56.401 59.36 54.122 58.614ZM70.282 33.141L74.338 36.878 73.038 38.289 66.066 31.865C64.922 30.811 64.289 29.547 64.167 28.075 64.041 26.599 64.512 25.281 65.581 24.122V24.122L68.927 20.49 80.02 30.71 78.647 32.201 68.949 23.266 66.976 25.408C66.267 26.177 65.928 27 65.959 27.875 65.986 28.756 66.496 29.654 67.49 30.569V30.569L68.835 31.808C68.759 30.639 69.226 29.507 70.236 28.411V28.411L71.569 26.964 72.965 28.25 71.632 29.697C71.066 30.31 70.681 30.879 70.478 31.403 70.269 31.923 70.204 32.502 70.282 33.141ZM98.212 17.702L101.604 16.258 102.348 18.004 99.458 19.234C98.916 19.465 98.485 19.638 98.167 19.752 97.846 19.86 97.425 19.945 96.905 20.008 96.382 20.065 95.902 20.021 95.466 19.876V19.876C94.789 19.639 94.243 19.237 93.83 18.672 93.416 18.106 93.029 17.4 92.668 16.552V16.552L88.768 7.392 90.633 6.598 94.514 15.713C94.841 16.481 95.183 17.048 95.541 17.414V17.414C96.225 18.073 97.115 18.169 98.212 17.702ZM120.227 0L120.987 15.065 118.962 15.167 118.202 0.102ZM140.676 10.269V10.269C141.441 7.996 142.657 6.441 144.322 5.603 145.979 4.77 147.905 4.716 150.1 5.442V5.442L151.431 5.881 150.835 7.683 149.259 7.162C147.75 6.663 146.424 6.78 145.282 7.511 144.14 8.243 143.293 9.39 142.742 10.952V10.952C142.255 12.529 142.252 13.954 142.73 15.229 143.211 16.497 144.206 17.381 145.716 17.88V17.88L147.291 18.401 146.695 20.203 145.365 19.763C143.17 19.037 141.656 17.846 140.822 16.189 139.984 14.523 139.935 12.55 140.676 10.269ZM174.738 32.055V32.055C175.286 31.471 175.732 30.842 176.073 30.167 176.415 29.501 176.62 28.828 176.69 28.148 176.764 27.463 176.694 26.799 176.478 26.155 176.267 25.507 175.888 24.918 175.342 24.387V24.387C174.795 23.856 174.195 23.495 173.541 23.303 172.892 23.107 172.226 23.055 171.543 23.15 170.865 23.239 170.196 23.462 169.536 23.819 168.871 24.18 168.255 24.643 167.687 25.209V25.209C167.124 25.808 166.679 26.437 166.352 27.098 166.019 27.763 165.825 28.429 165.77 29.095 165.714 29.761 165.798 30.411 166.023 31.045 166.243 31.684 166.627 32.268 167.173 32.799V32.799C167.72 33.33 168.315 33.696 168.96 33.897 169.6 34.103 170.252 34.169 170.917 34.093 171.581 34.018 172.238 33.802 172.889 33.446 173.54 33.099 174.156 32.636 174.738 32.055ZM166.126 23.693V23.693C166.966 22.847 167.845 22.199 168.761 21.75 169.677 21.301 170.596 21.049 171.518 20.993 172.436 20.933 173.332 21.069 174.209 21.403 175.08 21.742 175.899 22.282 176.664 23.025V23.025C177.415 23.755 177.975 24.552 178.343 25.418 178.708 26.289 178.875 27.186 178.847 28.109 178.813 29.028 178.586 29.952 178.164 30.881 177.742 31.81 177.12 32.707 176.299 33.571V33.571C175.459 34.418 174.585 35.065 173.678 35.514 172.776 35.959 171.875 36.201 170.976 36.243 170.073 36.289 169.183 36.135 168.306 35.783 167.43 35.44 166.611 34.899 165.851 34.161V34.161C165.086 33.418 164.519 32.613 164.15 31.747 163.777 30.886 163.6 30.003 163.619 29.099 163.63 28.194 163.843 27.285 164.261 26.37 164.683 25.45 165.305 24.558 166.126 23.693ZM192.814 51.948L191.563 48.438 193.35 47.801 196.537 56.739 194.749 57.377 193.494 53.857 181.074 58.285 180.393 56.376ZM58.658 96.376V96.376C60.968 95.618 62.968 95.657 64.66 96.496 66.347 97.342 67.562 98.878 68.306 101.102V101.102L68.757 102.449 66.929 103.061 66.396 101.468C65.881 99.929 64.981 98.917 63.694 98.432 62.403 97.956 60.957 97.968 59.358 98.468V98.468C57.779 99.031 56.617 99.891 55.872 101.049 55.136 102.21 55.025 103.56 55.54 105.099V105.099L56.073 106.692 54.245 107.303 53.794 105.956C53.05 103.732 53.097 101.774 53.936 100.083 54.782 98.395 56.356 97.16 58.658 96.376ZM70.809 122.89L66.697 126.683 65.377 125.252 72.446 118.729C73.605 117.66 74.934 117.123 76.435 117.118 77.935 117.112 79.229 117.699 80.316 118.877V118.877L83.712 122.558 72.465 132.935 71.07 131.423 80.9 122.353 78.899 120.184C78.176 119.4 77.37 118.986 76.481 118.941 75.592 118.905 74.643 119.352 73.635 120.282V120.282L72.27 121.542C73.455 121.557 74.562 122.122 75.591 123.237V123.237L76.939 124.697 75.529 125.998 74.181 124.537C73.606 123.914 73.064 123.477 72.553 123.227 72.043 122.977 71.462 122.864 70.809 122.89ZM95.692 144.87L99.13 146.332 98.376 148.106 95.441 146.858C94.892 146.624 94.463 146.431 94.154 146.278 93.853 146.121 93.498 145.873 93.088 145.533 92.678 145.194 92.372 144.815 92.168 144.397V144.397C91.862 143.727 91.771 143.044 91.894 142.348 92.02 141.646 92.266 140.865 92.631 140.005V140.005L96.581 130.714 98.474 131.519 94.54 140.773C94.208 141.554 94.034 142.2 94.018 142.711V142.711C94.025 143.678 94.582 144.398 95.692 144.87ZM121.226 136.543L120.444 151.825 118.39 151.72 119.172 136.438ZM139.027 141.721V141.721C138.281 139.408 138.331 137.407 139.178 135.72 140.033 134.037 141.575 132.83 143.802 132.097V132.097L145.152 131.653 145.754 133.485 144.159 134.009C142.617 134.516 141.601 135.412 141.109 136.696 140.626 137.984 140.631 139.43 141.123 141.032V141.032C141.678 142.614 142.532 143.78 143.685 144.531 144.843 145.273 146.192 145.391 147.734 144.884V144.884L149.33 144.359 149.932 146.19 148.582 146.634C146.354 147.367 144.397 147.309 142.709 146.462 141.027 145.607 139.799 144.027 139.027 141.721ZM171.493 121.102V121.102C170.912 120.521 170.287 120.047 169.618 119.68 168.95 119.314 168.272 119.085 167.584 118.994 166.893 118.898 166.217 118.948 165.558 119.144 164.894 119.344 164.286 119.711 163.734 120.246V120.246C163.178 120.785 162.791 121.381 162.574 122.033 162.353 122.69 162.279 123.366 162.352 124.06 162.425 124.746 162.632 125.431 162.972 126.115 163.317 126.796 163.771 127.435 164.332 128.035V128.035C164.918 128.62 165.54 129.092 166.2 129.449 166.864 129.802 167.531 130.019 168.199 130.1 168.873 130.176 169.537 130.11 170.191 129.9 170.841 129.695 171.444 129.323 172.001 128.784V128.784C172.553 128.25 172.945 127.659 173.175 127.011 173.401 126.368 173.487 125.709 173.432 125.034 173.377 124.358 173.182 123.685 172.846 123.014 172.51 122.344 172.059 121.706 171.493 121.102ZM162.748 129.569V129.569C161.914 128.689 161.284 127.777 160.859 126.833 160.43 125.885 160.199 124.946 160.167 124.018 160.135 123.081 160.304 122.175 160.675 121.3 161.045 120.425 161.618 119.612 162.393 118.861V118.861C163.155 118.124 163.981 117.582 164.872 117.236 165.768 116.885 166.682 116.742 167.613 116.809 168.544 116.866 169.477 117.125 170.411 117.585 171.336 118.045 172.227 118.704 173.085 119.561V119.561C173.909 120.441 174.534 121.343 174.959 122.268 175.385 123.203 175.604 124.129 175.617 125.048 175.635 125.962 175.455 126.856 175.075 127.73 174.695 128.605 174.118 129.418 173.342 130.169V130.169C172.566 130.92 171.735 131.471 170.849 131.822 169.962 132.173 169.06 132.327 168.143 132.285 167.23 132.237 166.314 131.986 165.393 131.53 164.478 131.08 163.596 130.426 162.748 129.569ZM177.58 99.181L176.305 102.745 174.49 102.095 177.731 93.039 179.546 93.689 178.27 97.253 190.863 101.76 190.173 103.688ZM47.895 78.242C47.895 75.013 50.512 72.396 53.74 72.396 56.969 72.396 59.586 75.013 59.586 78.242 59.586 81.47 56.969 84.087 53.74 84.087 50.512 84.087 47.895 81.47 47.895 78.242ZM183.676 78.242C183.676 75.013 186.293 72.396 189.522 72.396 192.75 72.396 195.367 75.013 195.367 78.242 195.367 81.47 192.75 84.087 189.522 84.087 186.293 84.087 183.676 81.47 183.676 78.242Z" fill="#0063db" data-fill-palette-color="primary"></path></svg></g><g transform="matrix(1,0,0,1,0,161.20829877528962)"><svg viewBox="0 0 244.43135999999998 16.326272023810823" height="16.326272023810823" width="244.43135999999998"><g transform="matrix(1,0,0,1,0,0)"><svg width="244.43135999999998" viewBox="1.4 -36 713.2309157509155 47.6" height="16.326272023810823" data-palette-color="#0063db"><path d="M17.05 0L11.75 0 11.75-30.7 1.4-30.7 1.4-35 27.35-35 27.35-30.7 17.05-30.7 17.05 0ZM37.4 0L32.1 0 32.1-36 37.4-36 37.4-20.8Q38.65-22.95 40.87-24.18 43.1-25.4 45.8-25.4L45.8-25.4Q50.25-25.4 52.8-22.6 55.35-19.8 55.35-14.25L55.35-14.25 55.35 0 50.1 0 50.1-13.7Q50.1-20.9 44.35-20.9L44.35-20.9Q41.35-20.9 39.37-18.8 37.4-16.7 37.4-12.8L37.4-12.8 37.4 0ZM73.2 0.6L73.2 0.6Q69.55 0.6 66.72-1.03 63.9-2.65 62.3-5.55 60.7-8.45 60.7-12.3L60.7-12.3Q60.7-16.2 62.27-19.15 63.85-22.1 66.67-23.75 69.5-25.4 73.25-25.4L73.25-25.4Q76.9-25.4 79.59-23.78 82.3-22.15 83.8-19.45 85.3-16.75 85.3-13.5L85.3-13.5Q85.3-13 85.27-12.43 85.25-11.85 85.2-11.15L85.2-11.15 65.9-11.15Q66.15-7.55 68.27-5.68 70.4-3.8 73.2-3.8L73.2-3.8Q75.45-3.8 76.97-4.83 78.5-5.85 79.25-7.6L79.25-7.6 84.55-7.6Q83.55-4.1 80.57-1.75 77.59 0.6 73.2 0.6ZM73.2-21.05L73.2-21.05Q70.55-21.05 68.5-19.48 66.45-17.9 66-14.75L66-14.75 80-14.75Q79.84-17.65 77.95-19.35 76.05-21.05 73.2-21.05ZM115.14 0.6L115.14 0.6Q111.49 0.6 108.62-1.05 105.74-2.7 104.12-5.63 102.49-8.55 102.49-12.4L102.49-12.4Q102.49-16.25 104.12-19.18 105.74-22.1 108.62-23.75 111.49-25.4 115.14-25.4L115.14-25.4Q119.74-25.4 122.87-23 125.99-20.6 126.89-16.5L126.89-16.5 121.34-16.5Q120.84-18.55 119.14-19.7 117.44-20.85 115.14-20.85L115.14-20.85Q113.19-20.85 111.54-19.88 109.89-18.9 108.89-17.03 107.89-15.15 107.89-12.4L107.89-12.4Q107.89-9.65 108.89-7.78 109.89-5.9 111.54-4.9 113.19-3.9 115.14-3.9L115.14-3.9Q117.44-3.9 119.14-5.05 120.84-6.2 121.34-8.3L121.34-8.3 126.89-8.3Q126.04-4.3 122.89-1.85 119.74 0.6 115.14 0.6ZM144.24 0.6L144.24 0.6Q140.69 0.6 137.86-1.03 135.04-2.65 133.39-5.58 131.74-8.5 131.74-12.4L131.74-12.4Q131.74-16.3 133.41-19.23 135.09-22.15 137.94-23.78 140.79-25.4 144.29-25.4L144.29-25.4Q147.84-25.4 150.66-23.78 153.49-22.15 155.16-19.23 156.84-16.3 156.84-12.4L156.84-12.4Q156.84-8.5 155.16-5.58 153.49-2.65 150.64-1.03 147.79 0.6 144.24 0.6ZM144.24-3.95L144.24-3.95Q146.14-3.95 147.76-4.9 149.39-5.85 150.39-7.73 151.39-9.6 151.39-12.4L151.39-12.4Q151.39-15.2 150.41-17.07 149.44-18.95 147.81-19.9 146.19-20.85 144.29-20.85L144.29-20.85Q142.39-20.85 140.76-19.9 139.14-18.95 138.14-17.07 137.14-15.2 137.14-12.4L137.14-12.4Q137.14-9.6 138.14-7.73 139.14-5.85 140.74-4.9 142.34-3.95 144.24-3.95ZM167.89 0L162.59 0 162.59-24.8 167.29-24.8 167.74-21.3Q168.94-23.2 170.91-24.3 172.89-25.4 175.49-25.4L175.49-25.4Q181.39-25.4 183.69-20.75L183.69-20.75Q185.04-22.9 187.31-24.15 189.59-25.4 192.24-25.4L192.24-25.4Q196.89-25.4 199.54-22.6 202.19-19.8 202.19-14.25L202.19-14.25 202.19 0 196.89 0 196.89-13.7Q196.89-20.9 191.39-20.9L191.39-20.9Q188.59-20.9 186.81-18.8 185.04-16.7 185.04-12.8L185.04-12.8 185.04 0 179.74 0 179.74-13.7Q179.74-20.9 174.19-20.9L174.19-20.9Q171.44-20.9 169.66-18.8 167.89-16.7 167.89-12.8L167.89-12.8 167.89 0ZM214.93 0L209.63 0 209.63-20.35 206.08-20.35 206.08-24.8 209.63-24.8 209.63-28.4Q209.63-32.45 211.66-34.23 213.68-36 217.38-36L217.38-36 219.98-36 219.98-31.5 218.18-31.5Q216.43-31.5 215.68-30.78 214.93-30.05 214.93-28.35L214.93-28.35 214.93-24.8 220.63-24.8 220.63-20.35 214.93-20.35 214.93 0ZM228.68-29.5L228.68-29.5Q227.18-29.5 226.21-30.43 225.23-31.35 225.23-32.75L225.23-32.75Q225.23-34.15 226.21-35.08 227.18-36 228.68-36L228.68-36Q230.18-36 231.16-35.08 232.13-34.15 232.13-32.75L232.13-32.75Q232.13-31.35 231.16-30.43 230.18-29.5 228.68-29.5ZM231.33 0L226.03 0 226.03-24.8 231.33-24.8 231.33 0ZM249.93 0.6L249.93 0.6Q246.28 0.6 243.45-1.03 240.63-2.65 239.03-5.55 237.43-8.45 237.43-12.3L237.43-12.3Q237.43-16.2 239-19.15 240.58-22.1 243.4-23.75 246.23-25.4 249.98-25.4L249.98-25.4Q253.63-25.4 256.33-23.78 259.03-22.15 260.53-19.45 262.03-16.75 262.03-13.5L262.03-13.5Q262.03-13 262-12.43 261.98-11.85 261.93-11.15L261.93-11.15 242.63-11.15Q242.88-7.55 245-5.68 247.13-3.8 249.93-3.8L249.93-3.8Q252.18-3.8 253.7-4.83 255.23-5.85 255.98-7.6L255.98-7.6 261.28-7.6Q260.28-4.1 257.3-1.75 254.33 0.6 249.93 0.6ZM249.93-21.05L249.93-21.05Q247.28-21.05 245.23-19.48 243.18-17.9 242.73-14.75L242.73-14.75 256.73-14.75Q256.58-17.65 254.68-19.35 252.78-21.05 249.93-21.05ZM277.43 0.6L277.43 0.6Q272.73 0.6 269.68-1.7 266.63-4 266.18-7.8L266.18-7.8 271.53-7.8Q271.93-6.1 273.43-4.88 274.93-3.65 277.38-3.65L277.38-3.65Q279.78-3.65 280.88-4.65 281.98-5.65 281.98-6.95L281.98-6.95Q281.98-8.85 280.45-9.53 278.93-10.2 276.23-10.75L276.23-10.75Q274.13-11.2 272.05-11.95 269.98-12.7 268.6-14.08 267.23-15.45 267.23-17.8L267.23-17.8Q267.23-21.05 269.73-23.23 272.23-25.4 276.73-25.4L276.73-25.4Q280.88-25.4 283.45-23.4 286.03-21.4 286.48-17.75L286.48-17.75 281.38-17.75Q281.13-19.35 279.9-20.25 278.68-21.15 276.63-21.15L276.63-21.15Q274.63-21.15 273.53-20.33 272.43-19.5 272.43-18.2L272.43-18.2Q272.43-16.9 273.95-16.15 275.48-15.4 277.98-14.8L277.98-14.8Q280.48-14.25 282.6-13.53 284.73-12.8 286.03-11.4 287.33-10 287.33-7.3L287.33-7.3Q287.38-3.9 284.7-1.65 282.03 0.6 277.43 0.6ZM306.67 0L302.57 0Q298.92 0 296.77-1.78 294.62-3.55 294.62-8.1L294.62-8.1 294.62-20.35 290.37-20.35 290.37-24.8 294.62-24.8 295.27-31.1 299.92-31.1 299.92-24.8 306.92-24.8 306.92-20.35 299.92-20.35 299.92-8.1Q299.92-6.05 300.8-5.28 301.67-4.5 303.82-4.5L303.82-4.5 306.67-4.5 306.67 0ZM336.72 0.6L336.72 0.6Q333.07 0.6 330.19-1.05 327.32-2.7 325.69-5.63 324.07-8.55 324.07-12.4L324.07-12.4Q324.07-16.25 325.69-19.18 327.32-22.1 330.19-23.75 333.07-25.4 336.72-25.4L336.72-25.4Q341.32-25.4 344.44-23 347.57-20.6 348.47-16.5L348.47-16.5 342.92-16.5Q342.42-18.55 340.72-19.7 339.02-20.85 336.72-20.85L336.72-20.85Q334.77-20.85 333.12-19.88 331.47-18.9 330.47-17.03 329.47-15.15 329.47-12.4L329.47-12.4Q329.47-9.65 330.47-7.78 331.47-5.9 333.12-4.9 334.77-3.9 336.72-3.9L336.72-3.9Q339.02-3.9 340.72-5.05 342.42-6.2 342.92-8.3L342.92-8.3 348.47-8.3Q347.62-4.3 344.47-1.85 341.32 0.6 336.72 0.6ZM359.52 0L354.22 0 354.22-36 359.52-36 359.52 0ZM377.81 0.6L377.81 0.6Q374.26 0.6 371.44-1.03 368.61-2.65 366.96-5.58 365.31-8.5 365.31-12.4L365.31-12.4Q365.31-16.3 366.99-19.23 368.66-22.15 371.51-23.78 374.36-25.4 377.86-25.4L377.86-25.4Q381.41-25.4 384.24-23.78 387.06-22.15 388.74-19.23 390.41-16.3 390.41-12.4L390.41-12.4Q390.41-8.5 388.74-5.58 387.06-2.65 384.21-1.03 381.36 0.6 377.81 0.6ZM377.81-3.95L377.81-3.95Q379.71-3.95 381.34-4.9 382.96-5.85 383.96-7.73 384.96-9.6 384.96-12.4L384.96-12.4Q384.96-15.2 383.99-17.07 383.01-18.95 381.39-19.9 379.76-20.85 377.86-20.85L377.86-20.85Q375.96-20.85 374.34-19.9 372.71-18.95 371.71-17.07 370.71-15.2 370.71-12.4L370.71-12.4Q370.71-9.6 371.71-7.73 372.71-5.85 374.31-4.9 375.91-3.95 377.81-3.95ZM409.66 0L405.56 0Q401.91 0 399.76-1.78 397.61-3.55 397.61-8.1L397.61-8.1 397.61-20.35 393.36-20.35 393.36-24.8 397.61-24.8 398.26-31.1 402.91-31.1 402.91-24.8 409.91-24.8 409.91-20.35 402.91-20.35 402.91-8.1Q402.91-6.05 403.79-5.28 404.66-4.5 406.81-4.5L406.81-4.5 409.66-4.5 409.66 0ZM420.66 0L415.36 0 415.36-36 420.66-36 420.66-20.8Q421.91-22.95 424.13-24.18 426.36-25.4 429.06-25.4L429.06-25.4Q433.51-25.4 436.06-22.6 438.61-19.8 438.61-14.25L438.61-14.25 438.61 0 433.36 0 433.36-13.7Q433.36-20.9 427.61-20.9L427.61-20.9Q424.61-20.9 422.63-18.8 420.66-16.7 420.66-12.8L420.66-12.8 420.66 0ZM447.86-29.5L447.86-29.5Q446.36-29.5 445.38-30.43 444.41-31.35 444.41-32.75L444.41-32.75Q444.41-34.15 445.38-35.08 446.36-36 447.86-36L447.86-36Q449.36-36 450.33-35.08 451.31-34.15 451.31-32.75L451.31-32.75Q451.31-31.35 450.33-30.43 449.36-29.5 447.86-29.5ZM450.51 0L445.21 0 445.21-24.8 450.51-24.8 450.51 0ZM462.8 0L457.5 0 457.5-24.8 462.2-24.8 462.6-20.45Q463.75-22.75 465.98-24.08 468.2-25.4 471.1-25.4L471.1-25.4Q475.6-25.4 478.18-22.6 480.75-19.8 480.75-14.25L480.75-14.25 480.75 0 475.5 0 475.5-13.7Q475.5-20.9 469.6-20.9L469.6-20.9Q466.65-20.9 464.73-18.8 462.8-16.7 462.8-12.8L462.8-12.8 462.8 0ZM497.15-7.6L497.15-7.6Q495.2-7.6 493.55-8.05L493.55-8.05 491.4-5.95Q491.95-5.6 492.75-5.35 493.55-5.1 495-4.9 496.45-4.7 498.95-4.5L498.95-4.5Q503.9-4.05 506.1-2.13 508.3-0.2 508.3 3L508.3 3Q508.3 5.2 507.13 7.18 505.95 9.15 503.48 10.38 501 11.6 497.15 11.6L497.15 11.6Q491.95 11.6 488.73 9.63 485.5 7.65 485.5 3.65L485.5 3.65Q485.5 2.1 486.33 0.58 487.15-0.95 488.95-2.3L488.95-2.3Q487.9-2.75 487.13-3.28 486.35-3.8 485.75-4.35L485.75-4.35 485.75-5.55 490.05-9.95Q487.15-12.45 487.15-16.5L487.15-16.5Q487.15-18.95 488.33-20.98 489.5-23 491.75-24.2 494-25.4 497.15-25.4L497.15-25.4Q499.25-25.4 501.05-24.8L501.05-24.8 510.3-24.8 510.3-21.3 505.9-21.05Q507.1-19 507.1-16.5L507.1-16.5Q507.1-14 505.93-12 504.75-10 502.53-8.8 500.3-7.6 497.15-7.6ZM497.15-11.75L497.15-11.75Q499.45-11.75 500.88-12.98 502.3-14.2 502.3-16.45L502.3-16.45Q502.3-18.75 500.88-19.95 499.45-21.15 497.15-21.15L497.15-21.15Q494.8-21.15 493.38-19.95 491.95-18.75 491.95-16.45L491.95-16.45Q491.95-14.2 493.38-12.98 494.8-11.75 497.15-11.75ZM490.5 3.15L490.5 3.15Q490.5 5.3 492.4 6.38 494.3 7.45 497.15 7.45L497.15 7.45Q499.9 7.45 501.6 6.28 503.3 5.1 503.3 3.15L503.3 3.15Q503.3 1.7 502.15 0.68 501-0.35 497.8-0.6L497.8-0.6Q495.4-0.75 493.55-1.05L493.55-1.05Q491.8-0.1 491.15 1 490.5 2.1 490.5 3.15ZM536.05 0.6L536.05 0.6Q532.9 0.6 530.85-0.45 528.8-1.5 527.8-3.23 526.8-4.95 526.8-7L526.8-7Q526.8-10.6 529.6-12.7 532.4-14.8 537.6-14.8L537.6-14.8 544.1-14.8 544.1-15.25Q544.1-18.15 542.52-19.6 540.95-21.05 538.45-21.05L538.45-21.05Q536.25-21.05 534.62-19.98 533-18.9 532.65-16.8L532.65-16.8 527.35-16.8Q527.6-19.5 529.17-21.43 530.75-23.35 533.17-24.38 535.6-25.4 538.5-25.4L538.5-25.4Q543.7-25.4 546.55-22.68 549.4-19.95 549.4-15.25L549.4-15.25 549.4 0 544.8 0 544.35-4.25Q543.3-2.2 541.3-0.8 539.3 0.6 536.05 0.6ZM537.1-3.7L537.1-3.7Q539.25-3.7 540.72-4.73 542.2-5.75 543.02-7.45 543.85-9.15 544.05-11.2L544.05-11.2 538.15-11.2Q535-11.2 533.67-10.1 532.35-9 532.35-7.35L532.35-7.35Q532.35-5.65 533.62-4.67 534.9-3.7 537.1-3.7ZM560.89 0L555.59 0 555.59-24.8 560.34-24.8 560.79-20.1Q562.09-22.55 564.42-23.98 566.74-25.4 570.04-25.4L570.04-25.4 570.04-19.85 568.59-19.85Q566.39-19.85 564.67-19.13 562.94-18.4 561.92-16.68 560.89-14.95 560.89-11.9L560.89-11.9 560.89 0ZM585.49 0.6L585.49 0.6Q581.94 0.6 579.12-1.03 576.29-2.65 574.64-5.58 572.99-8.5 572.99-12.4L572.99-12.4Q572.99-16.3 574.66-19.23 576.34-22.15 579.19-23.78 582.04-25.4 585.54-25.4L585.54-25.4Q589.09-25.4 591.91-23.78 594.74-22.15 596.41-19.23 598.09-16.3 598.09-12.4L598.09-12.4Q598.09-8.5 596.41-5.58 594.74-2.65 591.89-1.03 589.04 0.6 585.49 0.6ZM585.49-3.95L585.49-3.95Q587.39-3.95 589.01-4.9 590.64-5.85 591.64-7.73 592.64-9.6 592.64-12.4L592.64-12.4Q592.64-15.2 591.66-17.07 590.69-18.95 589.06-19.9 587.44-20.85 585.54-20.85L585.54-20.85Q583.64-20.85 582.01-19.9 580.39-18.95 579.39-17.07 578.39-15.2 578.39-12.4L578.39-12.4Q578.39-9.6 579.39-7.73 580.39-5.85 581.99-4.9 583.59-3.95 585.49-3.95ZM612.99 0.6L612.99 0.6Q608.49 0.6 605.91-2.2 603.34-5 603.34-10.55L603.34-10.55 603.34-24.8 608.64-24.8 608.64-11.1Q608.64-3.9 614.54-3.9L614.54-3.9Q617.49-3.9 619.39-6 621.29-8.1 621.29-12L621.29-12 621.29-24.8 626.59-24.8 626.59 0 621.89 0 621.49-4.35Q620.34-2.05 618.11-0.73 615.89 0.6 612.99 0.6ZM638.63 0L633.33 0 633.33-24.8 638.03-24.8 638.43-20.45Q639.58-22.75 641.81-24.08 644.03-25.4 646.93-25.4L646.93-25.4Q651.43-25.4 654.01-22.6 656.58-19.8 656.58-14.25L656.58-14.25 656.58 0 651.33 0 651.33-13.7Q651.33-20.9 645.43-20.9L645.43-20.9Q642.48-20.9 640.56-18.8 638.63-16.7 638.63-12.8L638.63-12.8 638.63 0ZM674.13 0.6L674.13 0.6Q670.53 0.6 667.78-1.1 665.03-2.8 663.48-5.75 661.93-8.7 661.93-12.45L661.93-12.45Q661.93-16.2 663.48-19.13 665.03-22.05 667.81-23.73 670.58-25.4 674.18-25.4L674.18-25.4Q677.13-25.4 679.36-24.25 681.58-23.1 682.83-21L682.83-21 682.83-36 688.13-36 688.13 0 683.38 0 682.83-3.85Q681.63-2.1 679.53-0.75 677.43 0.6 674.13 0.6ZM675.08-4L675.08-4Q678.48-4 680.66-6.35 682.83-8.7 682.83-12.4L682.83-12.4Q682.83-16.15 680.66-18.48 678.48-20.8 675.08-20.8L675.08-20.8Q671.68-20.8 669.48-18.48 667.28-16.15 667.28-12.4L667.28-12.4Q667.28-9.95 668.28-8.05 669.28-6.15 671.06-5.08 672.83-4 675.08-4ZM704.73 0.6L704.73 0.6Q700.03 0.6 696.98-1.7 693.93-4 693.48-7.8L693.48-7.8 698.83-7.8Q699.23-6.1 700.73-4.88 702.23-3.65 704.68-3.65L704.68-3.65Q707.08-3.65 708.18-4.65 709.28-5.65 709.28-6.95L709.28-6.95Q709.28-8.85 707.75-9.53 706.23-10.2 703.53-10.75L703.53-10.75Q701.43-11.2 699.35-11.95 697.28-12.7 695.9-14.08 694.53-15.45 694.53-17.8L694.53-17.8Q694.53-21.05 697.03-23.23 699.53-25.4 704.03-25.4L704.03-25.4Q708.18-25.4 710.75-23.4 713.33-21.4 713.78-17.75L713.78-17.75 708.68-17.75Q708.43-19.35 707.2-20.25 705.98-21.15 703.93-21.15L703.93-21.15Q701.93-21.15 700.83-20.33 699.73-19.5 699.73-18.2L699.73-18.2Q699.73-16.9 701.25-16.15 702.78-15.4 705.28-14.8L705.28-14.8Q707.78-14.25 709.9-13.53 712.03-12.8 713.33-11.4 714.63-10 714.63-7.3L714.63-7.3Q714.68-3.9 712-1.65 709.33 0.6 704.73 0.6Z" opacity="1" transform="matrix(1,0,0,1,0,0)" fill="#0063db" class="undefined-text-1" data-fill-palette-color="secondary" id="text-1"></path></svg></g></svg></g></svg></g></svg></g><g></g></svg></g></svg></g><g><path d="M135.095 39.141A105.167 105.167 0 0 1 260.425 39.141L257.341 39.141A102.083 102.083 0 0 0 138.179 39.141L135.095 39.141M135.095 208.059A105.167 105.167 0 0 0 260.425 208.059L257.341 208.059A102.083 102.083 0 0 1 138.179 208.059L135.095 208.059" fill="#0063db" stroke="transparent" data-fill-palette-color="tertiary"></path></g></svg></g><defs></defs></svg><rect width="395.52" height="247.2" fill="none" stroke="none" visibility="hidden"></rect></g></svg></g></svg>